Coordinates
version=1
nRows=16
nColumns=40
inDegrees=yes

Units are S.I. units (second, meters, Newtons, ...)
If the header above contains a line with 'inDegrees', this indicates whether rotational values are in degrees (yes) or radians (no).

endheader
time	pelvis_tilt	pelvis_list	pelvis_rotation	pelvis_tx	pelvis_ty	pelvis_tz	hip_flexion_r	hip_adduction_r	hip_rotation_r	knee_angle_r	knee_angle_r_beta	ankle_angle_r	subtalar_angle_r	mtp_angle_r	hip_flexion_l	hip_adduction_l	hip_rotation_l	knee_angle_l	knee_angle_l_beta	ankle_angle_l	subtalar_angle_l	mtp_angle_l	lumbar_extension	lumbar_bending	lumbar_rotation	arm_flex_r	arm_add_r	arm_rot_r	elbow_flex_r	pro_sup_r	wrist_flex_r	wrist_dev_r	arm_flex_l	arm_add_l	arm_rot_l	elbow_flex_l	pro_sup_l	wrist_flex_l	wrist_dev_l
     17.11700000	      3.77942068	     -2.22777412	    -20.59658370	      0.05278017	      1.30311008	      0.01918828	     69.74793053	     -2.06864320	     -0.73380796	     84.56822194	      1.47599392	     -4.46128889	    -28.66709099	      0.00000000	     32.91530742	    -13.13740578	     -1.63068431	     60.18670203	      1.05045612	    -17.16686661	     -8.70117981	      0.00000000	    -49.91036146	     -0.18854788	     -0.42973769	     61.58211995	     -6.73470230	    -15.42994082	     33.99167047	     88.45365586	      0.00000000	      0.00000000	     61.76370122	    -10.68144857	    -18.87975735	     36.41353578	     87.14966935	      0.00000000	      0.00000000
     17.13300000	      4.18741455	     -2.08518652	    -20.48714746	      0.05271700	      1.30359115	      0.01918082	     67.50208390	     -2.64140363	     -1.26965604	     81.15541755	      1.41642924	     -4.21717020	    -28.08875441	      0.00000000	     34.06538126	    -12.89623357	     -0.42982239	     63.88964810	      1.11508472	    -16.86267378	     -9.64439686	      0.00000000	    -50.16027016	     -0.29052839	     -0.67024057	     61.42937705	     -6.70529732	    -15.62476320	     34.08901037	     88.40320073	      0.00000000	      0.00000000	     61.90744070	    -10.58615263	    -18.88425074	     35.97724817	     86.84572966	      0.00000000	      0.00000000
     17.15000000	      4.46759713	     -2.17661402	    -20.05793309	      0.05268089	      1.30419668	      0.01880527	     64.94073246	     -3.31923654	     -2.21526441	     77.49781828	      1.35259209	     -4.23922625	    -27.65211738	      0.00000000	     35.54514954	    -12.69479607	      1.14687298	     67.53961128	      1.17878859	    -17.09997800	    -10.40243192	      0.00000000	    -50.37735654	      0.02266826	     -0.86069792	     61.21535023	     -6.69129071	    -15.99848403	     34.27320782	     88.45201680	      0.00000000	      0.00000000	     61.98354032	    -10.41918451	    -18.88859604	     35.67359487	     87.14310016	      0.00000000	      0.00000000
     17.16700000	      4.66619237	     -2.30993611	    -19.39330865	      0.05255795	      1.30462165	      0.01831928	     62.17937134	     -4.06683605	     -3.38831052	     73.76141977	      1.28737964	     -4.23397823	    -27.36632757	      0.00000000	     37.36638151	    -12.28439818	      3.06510001	     71.22116077	      1.24304375	    -17.68141111	    -11.07770321	      0.00000000	    -50.50504486	      0.48081947	     -1.16624395	     60.95280886	     -6.69066506	    -16.39055574	     34.37777157	     88.46402732	      0.00000000	      0.00000000	     62.04693599	    -10.31978204	    -18.82928602	     35.45830079	     87.23957548	      0.00000000	      0.00000000
     17.18300000	      4.89006852	     -2.26889791	    -18.68951099	      0.05251208	      1.30493313	      0.01766413	     59.25889242	     -4.84890722	     -4.38373025	     69.84101319	      1.21895563	     -4.60872676	    -26.86973973	      0.00000000	     39.33613181	    -11.63026547	      4.78418774	     74.91749071	      1.30755688	    -18.33538921	    -11.78393038	      0.00000000	    -50.55552648	      0.82662608	     -1.61031325	     60.63852176	     -6.67773015	    -16.74365796	     34.46242593	     88.47367941	      0.00000000	      0.00000000	     62.05340138	    -10.23384390	    -18.62315155	     35.24910124	     87.26323091	      0.00000000	      0.00000000
     17.20000000	      5.13449885	     -1.97694692	    -18.15558911	      0.05238430	      1.30515415	      0.01710146	     56.39598055	     -5.55131186	     -5.07322778	     65.97808897	      1.15153489	     -5.42476641	    -26.20094630	      0.00000000	     41.33941292	    -10.77805027	      6.11666711	     78.43590953	      1.36896487	    -18.87512791	    -12.39003649	      0.00000000	    -50.56294631	      0.85615224	     -2.14199276	     60.33290784	     -6.70981424	    -17.01665840	     34.55538318	     88.46937853	      0.00000000	      0.00000000	     62.08313584	    -10.15892856	    -18.40327676	     35.05688936	     87.27641979	      0.00000000	      0.00000000
     17.21700000	      5.23067776	     -1.85886820	    -17.17857938	      0.05237475	      1.30522509	      0.01615481	     53.36641648	     -6.35319524	     -6.33324681	     62.09779838	      1.08381104	     -6.30023816	    -26.14199736	      0.00000000	     43.74488075	     -9.72382496	      7.84623543	     81.85920870	      1.42871271	    -19.68910776	    -12.95487201	      0.00000000	    -50.49450130	      1.35765618	     -2.79727249	     60.07279461	     -6.72792103	    -17.31112581	     34.57588366	     88.48120862	      0.00000000	      0.00000000	     62.12842009	    -10.07561179	    -18.12156447	     34.86076563	     87.27051259	      0.00000000	      0.00000000
     17.23300000	      5.29400802	     -1.54878446	    -16.27637351	      0.05233992	      1.30516833	      0.01537192	     50.34220397	     -7.07917945	     -7.45798539	     58.17949089	      1.01542367	     -7.55781077	    -26.11943778	      0.00000000	     46.26779676	     -8.47617053	      9.30589932	     85.12033085	      1.48563003	    -20.40276086	    -13.33796318	      0.00000000	    -50.33895490	      1.64390689	     -3.55341180	     59.78446823	     -6.78347404	    -17.53011639	     34.55592323	     88.51117116	      0.00000000	      0.00000000	     62.17631308	    -10.03794255	    -17.81621424	     34.68725154	     87.17003120	      0.00000000	      0.00000000
     17.25000000	      5.32275322	     -1.18037811	    -15.36234102	      0.05223415	      1.30500393	      0.01456197	     47.43671879	     -7.73731499	     -8.49366648	     54.42815963	      0.94995059	     -8.99022565	    -26.22326097	      0.00000000	     48.85467271	     -7.12285476	     10.54846555	     88.13647239	      1.53827163	    -20.92955930	    -13.47628796	      0.00000000	    -50.17275251	      1.90669869	     -4.37154826	     59.54979839	     -6.85621206	    -17.68560177	     34.57262670	     88.49888960	      0.00000000	      0.00000000	     62.25566059	     -9.99976151	    -17.52016266	     34.57619469	     87.19839513	      0.00000000	      0.00000000
     17.26700000	      5.31595302	     -0.65827703	    -14.50687248	      0.05215112	      1.30474205	      0.01376352	     44.68696362	     -8.39350607	     -9.28518465	     50.79891133	      0.88660826	    -10.77065937	    -26.20801363	      0.00000000	     51.49515337	     -5.56693941	     11.49026520	     90.91944287	      1.58684363	    -21.17184034	    -13.50581736	      0.00000000	    -49.95333618	      2.04506569	     -5.23065238	     59.31835664	     -6.97755536	    -17.76683157	     34.62180895	     88.50328734	      0.00000000	      0.00000000	     62.37004658	     -9.94088464	    -17.20154357	     34.39517411	     87.18289060	      0.00000000	      0.00000000
     17.28300000	      5.27400025	     -0.07640357	    -13.64225968	      0.05208537	      1.30442301	      0.01296649	     42.01109067	     -9.02030775	     -9.98211966	     47.28419900	      0.82526496	    -12.77021320	    -26.25438120	      0.00000000	     54.20363724	     -3.88693660	     12.22083749	     93.47136866	      1.63138314	    -21.20257181	    -13.37019068	      0.00000000	    -49.71743561	      2.16148323	     -6.14416586	     59.10881350	     -7.10535340	    -17.81217829	     34.69969917	     88.50718835	      0.00000000	      0.00000000	     62.50619976	     -9.90467341	    -16.84519745	     34.22335534	     87.14966503	      0.00000000	      0.00000000
     17.30000000	      5.19538848	      0.61152593	    -12.97985857	      0.05200959	      1.30401544	      0.01234437	     39.58248593	     -9.62751926	    -10.40410779	     44.07748219	      0.76929719	    -14.82973980	    -25.94033784	      0.00000000	     56.87305838	     -2.26698154	     12.50802616	     95.75999476	      1.67132720	    -20.78416977	    -13.20997830	      0.00000000	    -49.43660404	      2.06260856	     -6.98325806	     58.90468248	     -7.27231523	    -17.83032408	     34.75879516	     88.48909435	      0.00000000	      0.00000000	     62.62702346	     -9.80117017	    -16.62893913	     34.07944131	     86.97637964	      0.00000000	      0.00000000
     17.31700000	      5.08553633	      1.15445318	    -12.13913791	      0.05191165	      1.30366104	      0.01149666	     37.18523745	    -10.21018290	    -11.12632092	     41.11010078	      0.71750661	    -17.08110556	    -26.02162372	      0.00000000	     59.54105429	     -0.54731346	     12.80729935	     97.81819614	      1.70724959	    -19.92412600	    -12.86184187	      0.00000000	    -49.20366634	      2.22641055	     -7.87671081	     58.79156579	     -7.37019958	    -17.92559974	     34.85929570	     88.48790209	      0.00000000	      0.00000000	     62.75933686	     -9.70890915	    -16.49908667	     33.98800021	     86.98892407	      0.00000000	      0.00000000
     17.33300000	      5.01578209	      1.51671984	    -11.18859526	      0.05188693	      1.30343159	      0.01067872	     34.71991567	    -10.66615728	    -12.04278698	     38.39170430	      0.67006165	    -19.31354115	    -26.42466711	      0.00000000	     62.10175644	      1.18352001	     13.12456321	     99.61698870	      1.73864444	    -18.72810760	    -12.24094033	      0.00000000	    -49.06996176	      2.60048666	     -8.72832672	     58.71293581	     -7.44375427	    -18.05368382	     34.96426655	     88.50053845	      0.00000000	      0.00000000	     62.85515422	     -9.60597201	    -16.51471884	     34.02031289	     87.17274378	      0.00000000	      0.00000000
     17.35000000	      4.87410801	      2.03237262	    -10.61776739	      0.05183970	      1.30300397	      0.01008518	     32.74298258	    -11.11546925	    -12.43659692	     36.22291101	      0.63220906	    -21.35295827	    -26.29678802	      0.00000000	     64.58172241	      2.62665904	     12.80903429	    101.09476821	      1.76443656	    -17.16865818	    -11.95984701	      0.00000000	    -48.84059595	      2.60700991	     -9.42471796	     58.63218262	     -7.57482265	    -18.09232096	     35.07116870	     88.48183601	      0.00000000	      0.00000000	     62.93978714	     -9.47054081	    -16.54436552	     34.03089575	     87.11894188	      0.00000000	      0.00000000
     17.36700000	      4.72925406	      2.40406623	    -10.05349995	      0.05182841	      1.30263113	      0.00953253	     30.93865051	    -11.45661199	    -12.79596055	     34.54495211	      0.60292315	    -23.12297709	    -26.38097365	      0.00000000	     66.87715681	      3.90686482	     12.36752020	    102.21308795	      1.78395492	    -15.31852765	    -11.69990942	      0.00000000	    -48.65193467	      2.70591685	    -10.06382070	     58.57156686	     -7.66900616	    -18.06152289	     35.20321434	     88.49548308	      0.00000000	      0.00000000	     62.99931287	     -9.35370527	    -16.61507933	     34.12268261	     87.09524596	      0.00000000	      0.00000000
